<?xml version="1.0" encoding="UTF-8"?>
<!-- Generator: visioncortex VTracer 0.6.12 -->
<svg version="1.1" xmlns="http://www.w3.org/2000/svg" width="1536" height="1024">
<defs>
  <style>
    .breathe {
      transform-origin: 768px 960px;
      animation: breathe 3.8s infinite ease-in-out;
    }
    @keyframes breathe {
      0%, 100% { transform: scale(1, 1) translateY(0); }
      50% { transform: scale(1.02, 0.98) translateY(0.3px); }
    }
    #eye-sockets, #eye-pupils, #eye-highlights {
      transform-origin: 725px 495px;
      animation: blink 5s infinite ease-in-out;
    }
    @keyframes blink {
      0%, 7%, 100% { transform: scaleY(1); }
      3.5% { transform: scaleY(0.05); }
    }
    .tail-sway {
      transform-origin: 1200px 620px;
      animation: tail-sway 4s infinite ease-in-out;
    }
    @keyframes tail-sway {
      0%, 100% { transform: rotate(0deg); }
      35% { transform: rotate(3deg); }
      75% { transform: rotate(-2deg); }
    }
  </style>
</defs>
<g class="breathe">
<path id="body-base" d="M0 0 C20.74 14.03 40.76 28.9 59.93 45.01 C63.44 47.81 63.44 47.81 67.44 49.81 C72.12 48.88 76.78 47.86 81.44 46.81 C86.92 45.97 92.43 45.32 97.94 44.69 C98.63 44.6 98.63 44.6 102.16 44.18 C166 36.61 231.46 43.43 293.18 60.84 C297.44 61.81 297.44 61.81 301.44 60.81 C304.73 58.47 308.02 56.12 311.29 53.75 C377.66 6.79 471.7 -40.4 555.44 -38.19 C568.25 -35.96 575.56 -32.66 583.44 -22.19 C590.26 -8.78 594.79 5.25 598.44 19.81 C598.87 21.49 599.3 23.18 599.74 24.91 C618.15 102.81 620.63 207.8 583.44 280.81 C582.61 282.44 581.79 284.07 580.94 285.75 C578.44 289.81 578.44 289.81 574.44 293.69 C573.45 295.05 572.46 296.41 571.44 297.81 C572.54 302.85 572.54 302.85 574.44 308.81 C579.5 325.73 583.16 342.29 585.44 359.81 C585.64 361.17 585.84 362.54 586.05 363.94 C586.68 370.24 586.24 376.52 585.98 382.84 C586.06 383.5 586.06 383.5 586.44 386.81 C588.09 387.14 589.74 387.47 591.44 387.81 C608.9 396.03 625.62 406.78 638.54 421.3 C639.02 421.72 639.02 421.72 641.44 423.81 C655.61 418.14 663.38 408.45 669.44 394.81 C672.51 386.16 673.12 377.53 673.92 368.45 C676 345.89 679.95 326.57 696.44 309.81 C715.56 294.13 735.07 288.04 759.44 289.81 C780.08 292.73 796.48 302.23 810.44 317.81 C830.87 345.61 833.98 379.08 829.19 412.38 C820.29 463.98 793.43 511.46 750.43 542.09 C731.31 555.11 710.36 567.23 687.44 571.81 C686.29 577.26 686.29 577.26 685.5 584.5 C681.17 618.61 668.83 648.25 648.44 675.81 C650.75 675.81 653.06 675.81 655.44 675.81 C683.89 681.77 715.1 689.61 734.44 712.81 C736.87 718.9 737.27 723.59 734.94 729.81 C717.67 757.44 671.64 765.04 642.44 771.81 C539.37 794.52 432.63 800.16 327.44 803.81 C326.39 803.85 326.39 803.85 321.11 804.04 C157.63 809.5 -26.95 808.27 -183.56 756.81 C-185.56 756.18 -187.56 755.55 -189.62 754.89 C-209.64 748.3 -227.38 740.54 -240.81 723.75 C-243.07 718.68 -243.25 715.32 -242.56 709.81 C-234.76 693.2 -215.77 685.76 -199.56 679.81 C-189.29 676.56 -178.96 673.64 -168.56 670.81 C-166.82 670.33 -165.07 669.84 -163.27 669.34 C-137.52 662.68 -109.9 658.61 -83.31 658.75 C-81.1 658.76 -78.89 658.77 -76.61 658.78 C-74.94 658.79 -73.28 658.8 -71.56 658.81 C-72.09 657.75 -72.62 656.69 -73.17 655.59 C-75.3 651.33 -77.43 647.07 -79.56 642.81 C-80.23 641.52 -80.9 640.22 -81.58 638.89 C-91.75 617.98 -103.09 588.06 -96.05 564.8 C-95.56 563.49 -95.07 562.17 -94.56 560.81 C-95.73 560.29 -96.89 559.77 -98.09 559.23 C-131.81 543.72 -162.46 520.86 -184.56 490.81 C-185.4 489.69 -186.23 488.56 -187.09 487.4 C-197.22 472.98 -212.56 448.97 -212.56 430.81 C-213.76 431.15 -214.95 431.49 -216.18 431.84 C-217.77 432.28 -219.36 432.73 -221 433.19 C-222.57 433.63 -224.13 434.07 -225.75 434.52 C-233.45 436.59 -240.53 438.42 -248.56 437.81 C-249.55 436.82 -250.54 435.83 -251.56 434.81 C-251.56 432.5 -251.56 430.19 -251.56 427.81 C-241.76 419.64 -229.86 417.44 -217.56 414.81 C-217.78 413.29 -218 411.77 -218.22 410.2 C-218.5 408.18 -218.78 406.15 -219.06 404.06 C-219.34 402.07 -219.62 400.07 -219.91 398.02 C-220.55 391.9 -220.67 385.96 -220.56 379.81 C-222.49 379.69 -224.42 379.57 -226.41 379.45 C-228.98 379.28 -231.54 379.11 -234.19 378.94 C-236.72 378.78 -239.25 378.61 -241.85 378.45 C-261.92 376.8 -261.92 376.8 -268.56 372.81 C-269.56 370.81 -269.56 370.81 -269.56 364.81 C-266.56 360.81 -266.56 360.81 -263.56 359.81 C-249.1 359.4 -234.84 359.33 -220.56 361.81 C-220.46 359.3 -220.36 356.78 -220.25 354.19 C-218.34 321 -211.25 287.56 -198.56 256.81 C-199.22 256.81 -199.88 256.81 -200.56 256.81 C-239.65 197.8 -227.5 104.29 -214.31 38.88 C-197.86 -40.01 -197.86 -40.01 -175.12 -57.62 C-126.62 -84.87 -39.3 -25.93 0 0 Z " fill="#FCF4E3" transform="translate(600.5625,154.1875)"/>
<path id="head-face" d="M0 0 C20.74 14.03 40.76 28.9 59.93 45.01 C63.44 47.81 63.44 47.81 67.44 49.81 C72.12 48.88 76.78 47.86 81.44 46.81 C86.92 45.97 92.43 45.32 97.94 44.69 C98.63 44.6 98.63 44.6 102.16 44.18 C166 36.61 231.46 43.43 293.18 60.84 C297.44 61.81 297.44 61.81 301.44 60.81 C304.73 58.47 308.02 56.12 311.29 53.75 C377.66 6.79 471.7 -40.4 555.44 -38.19 C568.25 -35.96 575.56 -32.66 583.44 -22.19 C590.26 -8.78 594.79 5.25 598.44 19.81 C598.87 21.49 599.3 23.18 599.74 24.91 C618.15 102.81 620.63 207.8 583.44 280.81 C582.61 282.44 581.79 284.07 580.94 285.75 C578.44 289.81 578.44 289.81 574.44 293.69 C573.45 295.05 572.46 296.41 571.44 297.81 C572.54 302.85 572.54 302.85 574.44 308.81 C579.5 325.73 583.16 342.29 585.44 359.81 C585.64 361.17 585.84 362.54 586.05 363.94 C586.68 370.24 586.24 376.52 585.98 382.84 C586.06 383.5 586.06 383.5 586.44 386.81 C588.09 387.14 589.74 387.47 591.44 387.81 C608.9 396.03 625.62 406.78 638.54 421.3 C639.02 421.72 639.02 421.72 641.44 423.81 C655.61 418.14 663.38 408.45 669.44 394.81 C672.51 386.16 673.12 377.53 673.92 368.45 C676 345.89 679.95 326.57 696.44 309.81 C715.56 294.13 735.07 288.04 759.44 289.81 C780.08 292.73 796.48 302.23 810.44 317.81 C830.87 345.61 833.98 379.08 829.19 412.38 C820.29 463.98 793.43 511.46 750.43 542.09 C731.31 555.11 710.36 567.23 687.44 571.81 C686.29 577.26 686.29 577.26 685.5 584.5 C681.17 618.61 668.83 648.25 648.44 675.81 C650.75 675.81 653.06 675.81 655.44 675.81 C683.89 681.77 715.1 689.61 734.44 712.81 C736.87 718.9 737.27 723.59 734.94 729.81 C717.67 757.44 671.64 765.04 642.44 771.81 C539.37 794.52 432.63 800.16 327.44 803.81 C326.39 803.85 326.39 803.85 321.11 804.04 C157.63 809.5 -26.95 808.27 -183.56 756.81 C-185.56 756.18 -187.56 755.55 -189.62 754.89 C-209.64 748.3 -227.38 740.54 -240.81 723.75 C-243.07 718.68 -243.25 715.32 -242.56 709.81 C-234.76 693.2 -215.77 685.76 -199.56 679.81 C-189.29 676.56 -178.96 673.64 -168.56 670.81 C-166.82 670.33 -165.07 669.84 -163.27 669.34 C-137.52 662.68 -109.9 658.61 -83.31 658.75 C-81.1 658.76 -78.89 658.77 -76.61 658.78 C-74.94 658.79 -73.28 658.8 -71.56 658.81 C-72.09 657.75 -72.62 656.69 -73.17 655.59 C-75.3 651.33 -77.43 647.07 -79.56 642.81 C-80.23 641.52 -80.9 640.22 -81.58 638.89 C-91.75 617.98 -103.09 588.06 -96.05 564.8 C-95.56 563.49 -95.07 562.17 -94.56 560.81 C-95.73 560.29 -96.89 559.77 -98.09 559.23 C-131.81 543.72 -162.46 520.86 -184.56 490.81 C-185.4 489.69 -186.23 488.56 -187.09 487.4 C-197.22 472.98 -212.56 448.97 -212.56 430.81 C-213.76 431.15 -214.95 431.49 -216.18 431.84 C-217.77 432.28 -219.36 432.73 -221 433.19 C-222.57 433.63 -224.13 434.07 -225.75 434.52 C-233.45 436.59 -240.53 438.42 -248.56 437.81 C-249.55 436.82 -250.54 435.83 -251.56 434.81 C-251.56 432.5 -251.56 430.19 -251.56 427.81 C-241.76 419.64 -229.86 417.44 -217.56 414.81 C-217.78 413.29 -218 411.77 -218.22 410.2 C-218.5 408.18 -218.78 406.15 -219.06 404.06 C-219.34 402.07 -219.62 400.07 -219.91 398.02 C-220.55 391.9 -220.67 385.96 -220.56 379.81 C-222.49 379.69 -224.42 379.57 -226.41 379.45 C-228.98 379.28 -231.54 379.11 -234.19 378.94 C-236.72 378.78 -239.25 378.61 -241.85 378.45 C-261.92 376.8 -261.92 376.8 -268.56 372.81 C-269.56 370.81 -269.56 370.81 -269.56 364.81 C-266.56 360.81 -266.56 360.81 -263.56 359.81 C-249.1 359.4 -234.84 359.33 -220.56 361.81 C-220.46 359.3 -220.36 356.78 -220.25 354.19 C-218.34 321 -211.25 287.56 -198.56 256.81 C-199.22 256.81 -199.88 256.81 -200.56 256.81 C-239.65 197.8 -227.5 104.29 -214.31 38.88 C-197.86 -40.01 -197.86 -40.01 -175.12 -57.62 C-126.62 -84.87 -39.3 -25.93 0 0 Z M-163.56 -41.19 C-186.72 -15.25 -192.2 34.46 -196.56 67.81 C-196.72 69.02 -196.72 69.02 -197.53 75.11 C-201.51 110.97 -202.42 149.14 -196.56 184.81 C-196.3 186.54 -196.03 188.28 -195.75 190.06 C-189.88 223.5 -189.88 223.5 -182.56 230.81 C-178.77 225.52 -175.19 220.2 -171.81 214.62 C-164.8 203.13 -156.76 192.64 -147.56 182.81 C-146.65 181.8 -145.73 180.78 -144.79 179.73 C-135.48 169.43 -125.72 160.09 -114.56 151.81 C-113.47 150.72 -112.38 149.63 -111.25 148.5 C-107.56 144.81 -107.56 144.81 -101.62 140 C-99.95 138.62 -98.28 137.24 -96.56 135.81 C-96.56 135.15 -96.56 134.49 -96.56 133.81 C-95.24 133.15 -93.92 132.49 -92.56 131.81 C-90.45 130.03 -88.37 128.22 -86.31 126.38 C-78.8 119.85 -70.82 114.33 -62.56 108.81 C-60.87 107.6 -59.18 106.38 -57.44 105.12 C-46.33 97.58 -34.9 92.01 -22.56 86.81 C-22.56 87.8 -22.56 88.79 -22.56 89.81 C-21.9 90.47 -21.24 91.13 -20.56 91.81 C-22.35 92.66 -24.14 93.5 -25.98 94.38 C-61.13 111.13 -98.13 131.75 -122.56 162.81 C-123.78 164.28 -125 165.74 -126.25 167.25 C-168.91 222.27 -195.78 290.28 -195.54 360.46 C-195.37 361.51 -195.37 361.51 -194.56 366.81 C-188.19 370.27 -186.35 370.62 -179.56 370.81 C-176.86 371.43 -174.17 372.11 -171.5 372.88 C-169.21 373.51 -166.92 374.15 -164.56 374.81 C-162.58 375.8 -160.6 376.79 -158.56 377.81 C-158.4 378.97 -158.4 378.97 -157.56 384.81 C-165.45 386.78 -172.49 385.61 -180.31 383.81 C-185.29 382.67 -189.44 381.81 -194.56 381.81 C-193.58 402.34 -193.58 402.34 -191.56 408.81 C-185.15 410.09 -180 408.82 -173.56 407.81 C-168.53 407.64 -164.43 407.59 -159.56 408.81 C-159.23 410.79 -158.9 412.77 -158.56 414.81 C-164.13 420.38 -172.11 420.94 -179.62 422.31 C-181.91 422.81 -184.2 423.3 -186.56 423.81 C-189.42 432.4 -179.14 447.65 -175.24 455.46 C-167.61 469.38 -158.43 481.29 -147.56 492.81 C-146.74 493.8 -146.74 493.8 -142.56 498.81 C-139.94 501.2 -137.27 503.53 -134.56 505.81 C-132.75 507.38 -130.93 508.95 -129.06 510.56 C-106.54 529.23 -79.61 543.94 -52.56 554.81 C-54.56 556.81 -54.56 556.81 -59.38 559.19 C-64.99 562.03 -68.7 564.09 -71.56 569.81 C-74 618.13 -44.39 669.96 -13.75 705.38 C-13.06 706.11 -13.06 706.11 -9.56 709.81 C-8.51 710.99 -7.46 712.16 -6.38 713.38 C11.23 729.25 32.98 735.63 56.34 735.13 C69.67 734.3 78.94 730.31 88.38 720.88 C95.39 712.14 95.75 705.7 95.44 694.81 C102.03 696.38 108.43 698.14 114.88 700.25 C124.59 703.32 134.4 705.13 144.44 706.81 C146.25 707.21 148.07 707.62 149.94 708.03 C155.11 708.97 159.24 709.62 164.44 708.81 C168.62 704.44 170.27 699.39 172.44 693.81 C181.94 680.63 194.69 669.77 209.44 662.81 C212.08 662.81 214.72 662.81 217.44 662.81 C215.16 668.51 212.99 670.21 208.31 674.06 C197.27 683.46 189.07 692.27 185.44 706.81 C184.99 717.96 185.48 724.89 192.25 733.88 C208.6 749.44 227.11 751.14 248.77 751.02 C274.75 750.2 295.75 737.81 313.62 719.5 C324.13 707.09 329.62 695.78 332.44 679.81 C334.09 680.14 335.74 680.47 337.44 680.81 C341.18 693.45 339.82 704.36 333.75 715.94 C332.99 717.22 332.22 718.5 331.44 719.81 C350.61 722.46 378.67 722.7 396.44 713.81 C397.79 711.49 399.13 709.16 400.44 706.81 C405.44 701.81 405.44 701.81 411.44 699.81 C413.09 699.81 414.74 699.81 416.44 699.81 C415.45 701.61 414.46 703.4 413.44 705.25 C410.59 711.48 409.4 714.2 410.44 720.81 C414.37 730.37 419.14 734.58 428.44 738.81 C463.75 748.9 501.16 735.43 532.21 718.82 C535.44 716.81 535.44 716.81 539.44 712.81 C543.42 711.36 543.42 711.36 548.19 710 C574.43 702.07 596.82 688.92 616.44 669.81 C617.59 668.7 618.74 667.59 619.92 666.44 C653.7 631.61 663.84 583.51 663.59 536.48 C662.57 490.94 643.3 450.83 611.12 419.18 C589.94 399.81 589.94 399.81 580.44 399.81 C580.35 401.12 580.26 402.43 580.18 403.77 C578.13 429.83 571.65 449.89 552 467.88 C548.44 470.81 548.44 470.81 546.44 471.81 C547.3 469.61 548.17 467.4 549.06 465.12 C571.25 405.81 564.97 341.69 540.8 283.95 C538.44 278.81 538.44 278.81 534.44 272.81 C530.43 275.04 526.61 277.37 522.81 279.94 C478.05 307.15 428.76 312.68 378 301.12 C352.54 294.7 329.44 284.85 306 273.25 C304.76 272.64 303.51 272.02 302.23 271.39 C259.15 249.83 219.89 217.09 202.94 170.94 C194.42 144.82 190.96 117.31 203.44 91.81 C206.55 86.97 209.94 82.39 213.44 77.81 C214.96 75.73 216.49 73.65 218.06 71.5 C222.44 66.81 222.44 66.81 227 65.62 C228.13 65.69 229.27 65.75 230.44 65.81 C224.94 62.15 217.72 62.47 211.25 61.75 C209.78 61.58 208.3 61.4 206.78 61.22 C129.6 52.39 57.04 63.8 -15.56 89.81 C-14.9 87.5 -14.24 85.19 -13.56 82.81 C-12.74 82.48 -12.74 82.48 -8.56 80.81 C-5.68 79.29 -2.8 77.74 0.06 76.19 C14.37 68.62 29.02 62.7 44.44 57.81 C38.88 50.45 31.7 45.37 24.44 39.81 C22.23 38.04 20.02 36.27 17.81 34.5 C-23.45 2.18 -107.45 -57.22 -163.56 -41.19 Z " fill="#86432D" transform="translate(600.5625,154.1875)"/>
<path id="head-patch-right" d="M0 0 C16.24 19.48 17.42 49.67 20 74 C20.11 75.03 20.11 75.03 20.69 80.26 C26.41 143.72 29.02 235.47 -8 291 C-8.99 291 -9.98 291 -11 291 C-11.33 290.01 -11.66 289.02 -12 288 C-12.33 288.66 -12.66 289.32 -13 290 C-17.8 291.2 -22.06 291.19 -27 291 C-27.66 290.34 -28.32 289.68 -29 289 C-32.37 291.11 -35.74 293.24 -39.05 295.43 C-80.84 322.61 -129.92 328.59 -178.14 318.75 C-205.93 312.42 -231.01 302.02 -256.44 289.44 C-257.68 288.82 -258.93 288.21 -260.21 287.58 C-303.58 265.87 -343.43 232.59 -360.5 186.12 C-369.02 160 -372.48 132.49 -360 107 C-356.9 102.14 -353.5 97.57 -350 93 C-349.18 91.84 -348.36 90.68 -347.52 89.48 C-341.4 81.27 -341.4 81.27 -335.02 80.02 C-295.31 79.87 -250.83 99.11 -215.62 116.11 C-205.44 121 -205.44 121 -200 121 C-199.67 120.34 -199.34 119.68 -199 119 C-209.49 108.51 -222.83 102.34 -235.93 95.7 C-244.81 91.19 -244.81 91.19 -247 89 C-205.65 56.02 -52.44 -26.22 0 0 Z " fill="#ECAD66" transform="translate(1163,139)"/>
<path id="belly" d="M0 0 C1.38 1.13 2.76 2.27 4.19 3.44 C39.88 31.45 84 42.76 128.94 38.54 C143.22 36.25 157.51 32.37 170 25 C168.25 60.59 148.94 92.9 125 118 C123.89 119.2 122.77 120.39 121.62 121.62 C103.19 138.79 80.62 150.39 56.69 157.84 C51.95 159.33 48.27 160.8 44.3 163.82 C17.67 183.54 -20.84 192.05 -53.44 188.25 C-62.64 186.18 -71.27 182.94 -76.81 174.94 C-79.98 169.24 -80.5 165.53 -80 159 C-77.56 153.56 -77.56 153.56 -75 149 C-74.67 148.34 -74.34 147.68 -74 147 C-81.15 147.61 -85.17 149.03 -90.19 154.44 C-93 158 -93 158 -95 162 C-114.34 168.79 -138.86 169.78 -159 167 C-157.21 163.52 -155.42 160.03 -153.63 156.55 C-149.5 147.56 -150.24 137.32 -153 128 C-154.65 127.67 -156.3 127.34 -158 127 C-158.23 128.11 -158.46 129.22 -158.7 130.37 C-161.67 143.91 -165.92 153.34 -175 164 C-175.75 164.9 -175.75 164.9 -179.56 169.44 C-196.06 186.31 -217.21 197.41 -241.1 198.2 C-262.02 198.34 -278.61 196.98 -295.62 183.56 C-302.42 176.48 -304.81 170.66 -305.31 160.94 C-304.63 145.72 -297.27 135.66 -287 125 C-284.69 123.02 -282.35 121.06 -280 119.12 C-274 114 -274 114 -273 110 C-283.17 110 -288.54 113.35 -296.5 119.44 C-297.08 119.86 -297.08 119.86 -300 122 C-300.99 121.67 -301.98 121.34 -303 121 C-305.67 121.69 -308.31 122.48 -310.94 123.31 C-345.63 133.85 -376.74 129.04 -408.08 112.3 C-412.93 109.6 -417.66 106.81 -422.38 103.88 C-431.34 98.63 -439.54 95.8 -450 97 C-450.33 98.65 -450.66 100.3 -451 102 C-449.35 102.66 -447.7 103.32 -446 104 C-430.17 111.16 -419.06 118.97 -410.56 134.44 C-408.68 139.95 -408.76 143.32 -410 149 C-413.72 155.98 -418.66 158.55 -426 161 C-444.17 161.82 -458.95 161.24 -475 152 C-475 151.34 -475 150.68 -475 150 C-476.65 149.34 -478.3 148.68 -480 148 C-485.61 143.48 -490.5 138.63 -495 133 C-495 132.01 -495 131.02 -495 130 C-495.66 130 -496.32 130 -497 130 C-497 129.01 -497 128.02 -497 127 C-497.66 127 -498.32 127 -499 127 C-499.33 125.35 -499.66 123.7 -500 122 C-500.66 122 -501.32 122 -502 122 C-506.38 113.82 -509.97 105.78 -513 97 C-513.61 95.47 -514.23 93.95 -514.86 92.38 C-520.36 78.56 -525.32 64.41 -529 50 C-529.45 48.31 -529.91 46.62 -530.38 44.88 C-530.25 43.6 -530.13 42.32 -530 41 C-522.9 36.69 -514.3 35.71 -506.25 34 C-494.48 31.22 -494.48 31.22 -491 26 C-484.52 26 -480.56 26.83 -474.44 28.62 C-457.54 33.17 -440.3 35.51 -423 38 C-422.3 38.1 -422.3 38.1 -418.73 38.62 C-366.23 46.13 -310.66 49.4 -258 42 C-255.4 41.64 -252.8 41.27 -250.12 40.9 C-243.2 39.9 -236.3 38.82 -229.4 37.7 C-224.75 36.96 -220.09 36.24 -215.43 35.52 C-199.11 32.97 -182.97 30.28 -167 26 C-167.89 26.11 -167.89 26.11 -172.38 26.69 C-174.23 26.79 -176.09 26.89 -178 27 C-178.66 26.01 -179.32 25.02 -180 24 C-181.32 23.67 -182.64 23.34 -184 23 C-184 22.34 -184 21.68 -184 21 C-178.69 19.49 -175.47 18.91 -170 20 C-165 23 -165 23 -164 25 C-137.26 31.02 -109.29 25.64 -83 20 C-80.51 19.47 -78.02 18.94 -75.46 18.4 C-60.4 15.14 -45.63 11.32 -30.89 6.8 C-26.96 5.6 -23.01 4.47 -19.04 3.41 C-14 2 -14 2 -9.12 -0.31 C-5 -2 -5 -2 0 0 Z " fill="#FEF7E6" transform="translate(1091,707)"/>
<path id="shadow-light" d="M0 0 C6.92 -0.51 12.75 -0.63 19.56 0.77 C25.43 6.26 28.32 12.49 31.56 19.77 C51.45 51.66 72.98 79.4 110.06 91.14 C135 96.54 159.1 96.94 182.56 85.77 C192.89 78.88 198.16 73.67 201.56 61.77 C207.47 62.43 213.23 63.46 219.06 64.64 C229.23 66.69 239.31 67.58 249.66 68.18 C251.28 68.7 252.9 69.23 254.56 69.77 C257.07 75.1 257.07 75.1 258.56 80.77 C266.68 93.83 280.06 100.01 294.56 103.77 C295.99 104.16 297.41 104.55 298.88 104.95 C329.96 112.22 363.53 109.68 391.69 94.45 C398.1 90.43 404.19 86.14 409.56 80.77 C412.45 80.62 415.35 80.6 418.24 80.64 C420.04 80.66 421.84 80.67 423.69 80.69 C427.45 80.74 431.21 80.79 434.97 80.84 C448.76 80.96 462.38 80.4 475.98 77.98 C477.16 77.91 478.35 77.84 479.56 77.77 C481.33 80.37 482.98 83.05 484.56 85.77 C504.56 103.08 533.73 101.55 558.56 100.77 C583.54 98.9 612.85 93.71 632.25 76.64 C637.83 72.57 642.54 71.19 649.23 69.74 C679.78 62.88 711.21 45.8 731.5 21.77 C737.56 16.77 737.56 16.77 745.25 17.08 C748.37 17.91 751.47 18.81 754.56 19.77 C756.52 20.27 758.49 20.77 760.51 21.29 C784.23 27.49 806.01 34.98 823.56 52.77 C826.59 59.84 827.83 64.38 825.06 71.77 C807.8 99.39 761.77 107 732.56 113.77 C629.49 136.48 522.75 142.11 417.56 145.77 C415.47 145.84 413.39 145.91 411.23 145.99 C247.75 151.46 63.18 150.22 -93.44 98.77 C-95.44 98.13 -97.43 97.5 -99.49 96.85 C-119.52 90.26 -137.26 82.49 -150.69 65.7 C-152.94 60.63 -153.13 57.27 -152.44 51.77 C-144.64 35.16 -125.65 27.71 -109.44 21.77 C-99.17 18.52 -88.83 15.59 -78.44 12.77 C-76.69 12.28 -74.95 11.8 -73.15 11.3 C-49.17 5.09 -24.51 2.91 0 0 Z " fill="#000" opacity="0.15" transform="translate(510.4375,812.234375)"/>
<path id="head-patch-left" d="M0 0 C1.86 0.88 3.72 1.77 5.64 2.68 C38.18 18.53 91.03 44.55 112 76 C110.79 76.4 109.58 76.8 108.33 77.21 C90.38 83.3 73.63 90.96 57 100 C56.01 100.33 55.02 100.66 54 101 C53.34 103.31 52.68 105.62 52 108 C54.29 107.18 56.58 106.36 58.94 105.51 C82.01 97.35 105.17 90.56 129 85 C130.92 84.55 132.84 84.1 134.82 83.64 C160.73 78.18 187.57 76.19 214 77 C212.58 82.67 209.49 84.15 205 88 C197.36 95.4 189.92 102.91 183 111 C177.97 116.51 172.88 121.97 167.8 127.45 C166.78 128.56 165.75 129.67 164.69 130.81 C163.76 131.81 162.84 132.81 161.89 133.83 C159.75 136.18 157.64 138.55 155.55 140.95 C144.25 153.86 132.12 165.98 120 178.12 C118.65 179.48 117.3 180.83 115.92 182.22 C109.77 188.36 103.65 194.4 97 200 C95.98 200.89 94.96 201.78 93.9 202.7 C44.11 245.47 -19.48 274.75 -86 271 C-98.85 269.46 -98.85 269.46 -105 267 C-94.5 232.84 -71.52 197.85 -47 172 C-45.95 170.7 -44.9 169.4 -43.81 168.06 C-32.91 156.45 -19.2 147.77 -6 139 C-4.53 138.02 -3.06 137.03 -1.54 136.02 C13.94 125.81 30.22 117.86 47 110 C46.34 109.34 45.68 108.68 45 108 C45 107.01 45 106.02 45 105 C18.93 116.06 -6.85 131.85 -27 152 C-27.66 152 -28.32 152 -29 152 C-29.33 152.99 -29.66 153.98 -30 155 C-33.65 158.01 -37.32 161.01 -41 164 C-42.55 165.55 -44.09 167.09 -45.69 168.69 C-50 173 -50 173 -53.78 175.82 C-78.21 194.21 -96.31 219.08 -112 244.96 C-114 248 -114 248 -116 249 C-129 216.04 -132.4 183 -132.31 147.75 C-132.31 145.27 -132.3 142.8 -132.3 140.25 C-132.17 121.97 -131.44 104.12 -129 86 C-128.81 84.6 -128.62 83.2 -128.43 81.76 C-117.8 5.29 -117.8 5.29 -97 -22 C-74.51 -36.99 -21.15 -10.08 0 0 Z " fill="#EBAC66" transform="translate(533,136)"/>
<path id="chest" d="M0 0 C27.16 7.76 49.11 36.45 62.8 59.84 C80.84 93.94 89.56 137.78 81 176 C71.11 188.36 49.06 190.9 34 193 C-13.78 195.13 -55.65 181.88 -93 152 C-97.75 153.06 -97.75 153.06 -103 155 C-136.75 166.44 -171.59 175.61 -207 180 C-207.72 180.09 -207.72 180.09 -211.34 180.57 C-225.22 181.86 -240.41 182.31 -254 179 C-254.99 177.68 -255.98 176.36 -257 175 C-262.79 172.1 -267.68 173.37 -274 174 C-274 174.66 -274 175.32 -274 176 C-272.35 176.33 -270.7 176.66 -269 177 C-267.35 177.66 -265.7 178.32 -264 179 C-261.69 178.67 -259.38 178.34 -257 178 C-256.67 178.66 -256.34 179.32 -256 180 C-275.6 184.32 -295.12 188.13 -315 191 C-318.96 191.63 -322.92 192.27 -326.88 192.9 C-374.57 200.42 -422.9 201.24 -471 197 C-473.24 196.81 -475.49 196.61 -477.8 196.41 C-507.65 193.5 -538.35 189.75 -567.31 181.75 C-574 180 -574 180 -581 180 C-581.99 181.32 -582.98 182.64 -584 184 C-590 186.71 -596.23 188.1 -602.62 189.56 C-608.22 190.84 -613.55 192.18 -619 194 C-617.68 205.22 -614.6 215.35 -611 226 C-610.33 228 -609.66 229.99 -608.97 232.05 C-606.04 240.64 -603.18 248.93 -599 257 C-597.66 260.33 -596.33 263.66 -595 267 C-594.01 268.98 -593.02 270.96 -592 273 C-592 273.66 -592 274.32 -592 275 C-591.34 275 -590.68 275 -590 275 C-589.67 276.65 -589.34 278.3 -589 280 C-588.34 280 -587.68 280 -587 280 C-587 280.99 -587 281.98 -587 283 C-586.34 283 -585.68 283 -585 283 C-584.34 284.98 -583.68 286.96 -583 289 C-582.01 289.33 -581.02 289.66 -580 290 C-579.47 290.62 -579.47 290.62 -576.81 293.75 C-573.1 297.89 -569.76 300.23 -565 303 C-564.01 303.99 -563.02 304.98 -562 306 C-550.37 310.81 -541.14 313.3 -528.56 313.38 C-526.42 313.4 -524.28 313.43 -522.07 313.46 C-512.9 312.76 -508.47 310.47 -502 304 C-499.2 295.6 -499.89 291.29 -503.75 283.31 C-512.05 269.75 -523.85 263.2 -537.86 256.73 C-541 255 -541 255 -542 252 C-541.34 251.01 -540.68 250.02 -540 249 C-526.96 247.68 -516.1 253.09 -505.25 259.75 C-474.88 277.86 -445.02 285.9 -409.73 277.79 C-406.47 276.93 -403.22 276.04 -399.98 275.12 C-396 274 -396 274 -391 273 C-392.39 278.58 -395.69 280.23 -400 284 C-403.98 288.48 -407.39 292.43 -409.58 298.05 C-411.32 302.42 -412.75 305.58 -416 309 C-422.93 310.17 -429.21 308.51 -436 307 C-438.06 306.64 -440.11 306.28 -442.23 305.91 C-453.61 303.85 -464.48 301.19 -475.36 297.23 C-479 296 -479 296 -485 295 C-484.92 297.14 -484.84 299.29 -484.75 301.5 C-485.13 312.82 -489.08 318.08 -497 326 C-511.38 336.22 -528.51 336.99 -545.55 334.27 C-579.77 326.2 -600.28 301.73 -617.99 273.1 C-635.76 242.97 -654.5 206.07 -652 170 C-646.93 162.39 -641.39 159.36 -633 156 C-635.86 153.14 -639.09 152.14 -642.81 150.56 C-653.45 145.9 -663.97 140.88 -674 135 C-674 134.34 -674 133.68 -674 133 C-674.96 132.37 -674.96 132.37 -679.81 129.19 C-686 125 -686 125 -689 120 C-689 119.34 -689 118.68 -689 118 C-690.32 117.34 -691.64 116.68 -693 116 C-696.06 112.72 -699.05 109.38 -702 106 C-703.26 104.62 -704.52 103.24 -705.81 101.81 C-713 93.22 -713 93.22 -713 89 C-707.61 90.8 -703.93 92.73 -699.19 95.75 C-697.77 96.65 -696.35 97.55 -694.89 98.48 C-692.07 100.31 -689.28 102.17 -686.5 104.06 C-656.68 123.53 -621.62 136.77 -588 148 C-586.63 148.47 -585.25 148.93 -583.84 149.41 C-501.39 176.46 -410.35 186.49 -324 179 C-321.96 178.84 -319.92 178.69 -317.82 178.53 C-307.63 177.7 -297.98 176.28 -288 174 C-285.65 173.69 -283.3 173.38 -280.88 173.06 C-273.32 172.04 -265.96 170.66 -258.51 169.1 C-254 168.2 -249.5 167.39 -244.96 166.62 C-215.42 161.44 -186.56 153.06 -158 144 C-157.23 143.76 -157.23 143.76 -153.31 142.53 C-143.96 139.51 -135.2 135.99 -126.38 131.62 C-125.22 131.06 -125.22 131.06 -119.4 128.19 C-117.29 127.14 -115.18 126.08 -113 125 C-112.19 124.61 -112.19 124.61 -108.1 122.62 C-100.39 118.86 -93.14 114.76 -86 110 C-85.02 109.36 -85.02 109.36 -80.06 106.12 C-65.85 96.46 -53.68 86.51 -43 73 C-41.85 71.66 -40.69 70.32 -39.5 68.94 C-37 66 -37 66 -36 64 C-35.34 64 -34.68 64 -34 64 C-33.67 62.68 -33.34 61.36 -33 60 C-32.01 60 -31.02 60 -30 60 C-30.25 60.8 -30.25 60.8 -31.5 64.88 C-33 70 -33 70 -33 72 C-32.51 71.49 -32.51 71.49 -30 68.94 C-26 65 -26 65 -22 61.75 C-7.14 47.82 -1.52 25.94 -0.19 6.19 C-0.13 4.15 -0.06 2.1 0 0 Z " fill="#F9DFAB" transform="translate(1181,554)"/>
<path id="shadow-deep" d="M0 0 C5.29 -0.45 9.35 -0.55 14.48 0.81 C19.44 5.45 22.24 10.9 25.48 16.81 C27.36 19.37 29.3 21.89 31.29 24.37 C32.2 25.51 33.11 26.64 34.05 27.82 C34.85 28.8 35.65 29.79 36.48 30.81 C37.01 31.46 37.01 31.46 39.67 34.75 C60.1 57 87.42 66.36 116.93 68.07 C137.75 68.61 156.33 63.26 172.48 49.81 C176.15 44.64 177.7 41.03 179.48 34.81 C185.39 35.47 191.15 36.5 196.98 37.68 C207.15 39.73 217.23 40.62 227.58 41.22 C229.2 41.74 230.81 42.27 232.48 42.81 C234.98 48.14 234.98 48.14 236.48 53.81 C244.6 66.87 257.98 73.05 272.48 76.81 C273.9 77.2 275.33 77.59 276.8 78 C307.88 85.27 341.45 82.72 369.61 67.5 C376.02 63.47 382.11 59.18 387.48 53.81 C390.37 53.66 393.27 53.64 396.16 53.68 C397.96 53.7 399.76 53.71 401.61 53.73 C405.37 53.78 409.13 53.83 412.89 53.89 C426.68 54 440.3 53.44 453.9 51.02 C455.08 50.95 456.26 50.88 457.48 50.81 C459.25 53.41 460.9 56.09 462.48 58.81 C482.48 76.12 511.65 74.59 536.48 73.81 C561.45 71.94 590.77 66.76 610.17 49.68 C615.74 45.62 620.46 44.23 627.15 42.78 C650.55 37.53 670.71 25.99 690.48 12.81 C707.85 12.81 732.48 19.38 746.48 29.81 C750.48 33.81 750.48 33.81 751.67 37.56 C751.48 41.81 751.48 41.81 748.79 45.93 C728 64.61 691.1 69.38 664.48 73.81 C662.67 74.12 660.85 74.43 658.99 74.76 C602.95 84.35 545.73 87.9 488.98 90.41 C480.93 90.77 472.89 91.28 464.86 91.81 C459.06 92.16 453.27 92.49 447.48 92.81 C446.64 92.86 446.64 92.86 442.37 93.09 C370.32 96.86 297.83 95.9 225.8 92.04 C221.43 91.81 217.05 91.58 212.67 91.35 C175.84 89.44 139.16 86.7 102.48 82.81 C98.66 82.41 94.84 82.02 91.02 81.62 C69.69 79.39 48.39 76.9 27.11 74.31 C24.81 74.04 22.52 73.76 20.16 73.48 C-58.8 63.7 -58.8 63.7 -86.52 42.81 C-89.52 38.81 -89.52 38.81 -89.52 32.81 C-78.98 16.07 -51.36 10.34 -33.43 5.91 C-22.33 3.42 -11.24 1.65 0 0 Z " fill="#000" opacity="0.3" transform="translate(532.51953125,839.19140625)"/>
<g class="tail-sway"><path id="tail-outer" d="M0 0 C14.25 11.97 19.62 28.97 21.53 46.97 C24.3 88.64 11.78 134.43 -15 167 C-19.87 172.47 -24.9 177.75 -30 183 C-31.46 184.57 -32.93 186.13 -34.44 187.75 C-49.46 201.74 -81.12 227 -103 227 C-103.05 226.17 -103.05 226.17 -103.33 221.98 C-105.68 188.77 -111.51 152.87 -133 126 C-133 125.01 -133 124.02 -133 123 C-131.23 122.13 -129.45 121.27 -127.62 120.38 C-111.16 111.99 -102.66 98.14 -97 81 C-94.25 70.31 -92.95 60.37 -92.62 49.38 C-91.73 29.29 -86.98 13.79 -72 0 C-49.89 -15.48 -21.96 -15.95 0 0 Z " fill="#EDAF68" transform="translate(1388,472)"/></g>
<path id="back-patch" d="M0 0 C27.16 7.76 49.11 36.45 62.8 59.84 C80.84 93.94 89.56 137.78 81 176 C71.11 188.36 49.06 190.9 34 193 C-17.02 195.28 -58.54 179.57 -98 148 C-103.5 147.55 -108.81 147.3 -114.31 147.25 C-115.82 147.22 -117.32 147.19 -118.87 147.16 C-122.58 147.09 -126.29 147.04 -130 147 C-126.66 144.77 -123.23 143.09 -119.62 141.31 C-106.84 134.94 -94.75 128.12 -83 120 C-81.18 118.76 -79.37 117.52 -77.5 116.25 C-70.21 110.62 -63.62 104.4 -57 98 C-55.84 96.88 -54.68 95.76 -53.48 94.61 C-49.06 90.27 -45.2 86.34 -42 81 C-40.68 79.68 -39.36 78.36 -38 77 C-37.84 76.5 -37.84 76.5 -37 74 C-35.35 73.01 -33.7 72.02 -32 71 C-12.65 54.9 -3.31 35.25 -0.46 10.31 C-0.23 6.88 -0.1 3.44 0 0 Z " fill="#EDAF69" transform="translate(1181,554)"/>
<g id="eye-sockets">
<path id="eye-socket-right" d="M0 0 C17.28 13.8 25.88 31.18 29 53 C29.86 71.94 24.94 88.29 13 103 C0.57 115.77 -13.8 121.49 -31.44 122.38 C-50.94 121.41 -66.47 115.21 -80 101 C-93.3 82.68 -97.6 62.76 -94.35 40.54 C-91.21 26.62 -84.94 16.08 -75 6 C-73.99 4.97 -72.98 3.94 -71.94 2.88 C-49.53 -13.48 -23.71 -14.99 0 0 Z " fill="#8F513B" transform="translate(905,453)"/>
<path id="eye-socket-left" d="M0 0 C14.46 13.09 23.11 30.13 24.29 49.78 C24.62 69.28 20.35 84.99 9 101 C-3.17 113.17 -16.05 120.03 -33.5 120.5 C-48.48 120.08 -59.85 115.08 -71.19 105.44 C-84.7 89.72 -88.79 71.39 -88 51 C-85.47 31.26 -78.27 14.31 -63 1 C-42.46 -12.87 -20.66 -14.31 0 0 Z " fill="#8E503A" transform="translate(598,440)"/>
</g>
<g class="tail-sway"><path id="tail-mid" d="M0 0 C19.42 -0.79 39.92 11.65 54 24 C60.29 29.87 65.31 35.79 70 43 C70.45 43.69 70.45 43.69 72.75 47.19 C75.76 53.63 76.78 60.01 78 67 C78.41 68.65 78.83 70.3 79.25 72 C80 76 80 76 79 83 C76.19 86.69 76.19 86.69 72 91 C70.21 92.9 68.41 94.79 66.56 96.75 C51.52 111.63 18.6 138 -4 138 C-4.05 137.17 -4.05 137.17 -4.33 132.98 C-6.68 99.77 -12.51 63.87 -34 37 C-34 36.01 -34 35.02 -34 34 C-32.23 33.13 -30.45 32.27 -28.62 31.38 C-14.28 24.07 -8.03 13.38 0 0 Z " fill="#ECAD66" transform="translate(1289,561)"/></g>
<path id="cheek-right" d="M0 0 C0.91 -0.01 0.91 -0.01 5.54 -0.06 C30.67 -0.13 30.67 -0.13 41.44 5.25 C41.77 7.56 42.1 9.87 42.44 12.25 C30.15 22.08 8.29 17.14 -6.75 16.75 C-8.67 16.7 -10.58 16.65 -12.56 16.61 C-17.23 16.49 -21.9 16.37 -26.56 16.25 C-26.56 16.91 -26.56 17.57 -26.56 18.25 C-25.9 18.41 -25.9 18.41 -22.56 19.25 C-14.82 24.56 -10.82 32.23 -8.56 41.25 C-8.56 43.56 -8.56 45.87 -8.56 48.25 C-9.73 47.97 -10.9 47.7 -12.11 47.41 C-12.87 47.23 -12.87 47.23 -16.75 46.31 C-18.27 45.95 -19.79 45.59 -21.36 45.22 C-30.61 43.08 -36.85 41.9 -45.56 46.25 C-45.4 47.4 -45.4 47.4 -44.56 53.25 C-37.08 58.1 -27.97 60.45 -19.56 63.25 C-23.62 71.36 -31.77 75.27 -40.06 78.12 C-59.43 83.61 -78.16 84.67 -97 76.44 C-106.48 71 -113 64.95 -116.56 54.25 C-117.34 41.43 -112.68 34.01 -104.56 24.25 C-89.1 10.01 -71.85 6.77 -51.56 7.25 C-48.56 7.25 -48.56 7.25 -44.56 4.25 C-29.5 0.84 -15.37 0.04 0 0 Z " fill="#FFB0A0" transform="translate(1033.5625,532.75)"/>
<g class="tail-sway"><path id="tail-tip" d="M0 0 C16.78 11.84 22.94 23.59 27.56 43 C27.81 44.57 28.06 46.13 28.31 47.75 C28.62 49.69 28.93 51.63 29.25 53.62 C29.33 61.03 27.59 65.13 24.31 71.75 C23.73 72.94 23.15 74.12 22.55 75.35 C17.03 86.18 10.9 97.08 1.31 104.75 C1.21 102.83 1.11 100.91 1 98.94 C0.38 92.47 -0.8 86.94 -2.69 80.75 C-3.02 79.6 -3.02 79.6 -4.69 73.75 C-14.19 51.87 -33.84 36.81 -55.6 28.2 C-62.87 25.69 -70.08 23.9 -77.69 22.75 C-77.25 21.12 -76.82 19.49 -76.38 17.81 C-74.69 10.75 -74.69 10.75 -74.1 6.27 C-73.9 4.76 -73.7 3.25 -73.5 1.69 C-73.34 0.25 -73.18 -1.18 -73.02 -2.66 C-71.69 -6.25 -71.69 -6.25 -68.07 -8.12 C-66.63 -8.49 -65.18 -8.87 -63.69 -9.25 C-62.41 -9.64 -61.13 -10.02 -59.81 -10.42 C-39.58 -14.5 -17.72 -10.12 0 0 Z " fill="#FDF3DB" transform="translate(1366.6875,538.25)"/></g>
<path id="cheek-left" d="M0 0 C9.27 7.11 17.11 15.44 20 27 C20.41 37.26 20.03 43.74 14.06 52.12 C1.98 63.65 -12.92 65.61 -28.89 65.35 C-42.02 64.45 -54.7 59.3 -64 50 C-61 48 -61 48 -57 46 C-56 42 -56 42 -57 38 C-62.67 36.58 -68.18 36.94 -74 37 C-73.12 23.15 -73.12 23.15 -70 17 C-67.36 17 -64.72 17 -62 17 C-59.69 16.34 -57.38 15.68 -55 15 C-54 13 -54 13 -54 7 C-57.58 4.36 -60.78 2.41 -65 1 C-64 -2 -64 -2 -60.25 -4.44 C-38.8 -14.91 -19.99 -11.57 0 0 Z " fill="#FFB0A0" transform="translate(498,525)"/>
<g id="paws">
<path id="paw-mid" d="M0 0 C0.16 0.5 0.16 0.5 1 3 C-2 7 -2 7 -7 8 C-7.99 8.99 -8.98 9.98 -10 11 C-12.99 13.01 -15.99 15.01 -19 17 C-23.79 20.83 -27.02 24.06 -29 30 C-29.46 36.94 -29.36 41.44 -25 47 C-13.46 56.03 0.1 56.66 14.12 56.5 C15.76 56.49 17.39 56.49 19.07 56.48 C30.52 56.32 40.89 54.87 52 52 C52.33 52.66 52.66 53.32 53 54 C27.31 64.58 -4.68 73.58 -31.88 63.12 C-39.99 58.95 -45.07 54.78 -48 46 C-48.71 38.29 -46.76 33.69 -43 27 C-42.67 26.34 -42.34 25.68 -42 25 C-49.15 25.61 -53.17 27.03 -58.19 32.44 C-61 36 -61 36 -63 40 C-82.34 46.79 -106.86 47.78 -127 45 C-125.21 41.52 -123.42 38.03 -121.63 34.55 C-120 31 -120 31 -119 26 C-118.67 26 -118.34 26 -118 26 C-117.84 24.51 -117.84 24.51 -117 17 C-115.71 16.99 -115.71 16.99 -109.2 16.92 C-75.83 16.44 -43.93 13.66 -13 0 C-7 -1 -7 -1 0 0 Z " fill="#F5D39C" transform="translate(1059,829)"/>
<path id="paw-right" d="M0 0 C5 5 5 5 6 10 C2.96 16.58 -0.81 22.19 -5.25 27.88 C-10 34 -10 34 -12 39 C-33.28 63.31 -64.23 81.65 -96 88 C-98 87 -98 87 -100 82 C-105.96 76.84 -111.46 73.51 -119 71 C-119 70.34 -119 69.68 -119 69 C-121.97 68.67 -124.94 68.34 -128 68 C-128 67.01 -128 66.02 -128 65 C-124.28 64.28 -120.55 63.57 -116.81 62.93 C-102.26 60.12 -88.77 54.88 -75.28 48.86 C-71 47 -71 47 -67 46 C-67 45.34 -67 44.68 -67 44 C-62.08 41.38 -57.18 39.07 -52 37 C-52 36.34 -52 35.68 -52 35 C-50.02 33.68 -48.04 32.36 -46 31 C-44.05 29.15 -42.15 27.25 -40.3 25.32 C-39.23 24.22 -38.17 23.13 -37.07 22.01 C-34.87 19.72 -32.67 17.43 -30.47 15.13 C-21.27 5.71 -13.51 0 0 0 Z " fill="#F9DEA9" transform="translate(1235,779)"/>
<path id="paw-left" d="M0 0 C13.04 -1.32 23.9 4.09 34.75 10.75 C65.12 28.86 94.98 36.9 130.27 28.79 C133.53 27.93 136.78 27.04 140.02 26.12 C144 25 144 25 149 24 C147.61 29.58 144.31 31.23 140 35 C136.02 39.48 132.61 43.43 130.42 49.05 C128.68 53.42 127.25 56.58 124 60 C117.07 61.17 110.79 59.51 104 58 C102.97 57.82 102.97 57.82 97.77 56.91 C86.39 54.85 75.52 52.19 64.64 48.23 C61 47 61 47 55 46 C55.04 48.25 55.08 50.5 55.12 52.81 C54.98 61.43 54.23 61.46 49 68 C48.13 69.13 47.27 70.27 46.38 71.44 C40.7 77.42 35.12 80.65 27 82 C21 77 21 77 20 71 C20.16 70.5 20.16 70.5 21 68 C24.3 66.9 27.64 65.89 31 65 C29.7 65.32 28.41 65.65 27.07 65.98 C9.81 69.45 -7.17 66.44 -23 59 C-23.33 58.34 -23.66 57.68 -24 57 C-23.4 57.21 -23.4 57.21 -20.38 58.25 C-19.49 58.54 -19.49 58.54 -15 60 C-13.02 60.72 -11.04 61.44 -9 62.19 C2.73 65.51 17.39 66.29 28.95 62.28 C35.22 58.75 37.72 55.83 40 49 C40 38.36 34.62 30.94 28 23 C19.76 16.79 11.5 12.05 2.14 7.73 C-1 6 -1 6 -2 3 C-1.34 2.01 -0.68 1.02 0 0 Z " fill="#F2CA90" transform="translate(641,803)"/>
</g>
<g id="ears-inner">
<path id="ear-inner-right" d="M0 0 C12.78 15.97 10.18 39.46 10.19 58.75 C10.2 60.94 10.21 63.13 10.22 65.39 C10.24 85.69 8.95 105.47 4.88 125.38 C4.73 126.13 4.73 126.13 3.97 129.94 C0.76 145.73 -3.06 161.37 -7 177 C-8.66 183.63 -8.14 188.59 -6 195 C-9 197 -9 197 -13 197 C-13 197.66 -13 198.32 -13 199 C-13.99 199.33 -14.98 199.66 -16 200 C-16.66 199.67 -17.32 199.34 -18 199 C-18 198.34 -18 197.68 -18 197 C-17.34 197 -16.68 197 -16 197 C-16.33 196.01 -16.66 195.02 -17 194 C-17.66 194 -18.32 194 -19 194 C-19.66 194.66 -20.32 195.32 -21 196 C-21.66 195.67 -21.66 195.67 -25 194 C-23.82 195.61 -22.65 197.22 -21.44 198.88 C-20.3 200.57 -19.17 202.26 -18 204 C-18.33 204.66 -18.66 205.32 -19 206 C-19.79 205.02 -20.58 204.04 -21.39 203.03 C-33.57 187.94 -46.03 172.97 -59.75 159.25 C-63 156 -63 156 -66.44 152 C-70.06 147.94 -73.9 144.58 -78 141 C-80.28 138.72 -82.55 136.43 -84.81 134.12 C-90.58 128.31 -96.6 123.11 -103 118 C-104.59 116.56 -106.18 115.11 -107.81 113.62 C-115.08 107.15 -122.66 101.08 -130.6 95.44 C-133.47 93.39 -136.25 91.21 -139 89 C-136.54 79.15 -123.58 71.08 -116 65 C-113.77 63.07 -111.54 61.13 -109.31 59.19 C-84.9 38.22 -33.55 -5.51 0 0 Z " fill="#A46D54" transform="translate(1143,203)"/>
<path id="ear-inner-left" d="M0 0 C8.45 6.12 16.27 12.73 23.91 19.82 C26.32 22.04 28.78 24.22 31.25 26.38 C33.83 28.64 36.32 31.01 38.75 33.44 C38.75 34.1 38.75 34.76 38.75 35.44 C39.41 35.44 40.07 35.44 40.75 35.44 C43.14 38.06 45.46 40.73 47.75 43.44 C48.4 44.16 48.4 44.16 51.69 47.81 C54.75 51.44 54.75 51.44 54.75 53.44 C55.25 53.6 55.25 53.6 57.75 54.44 C59.51 56.46 61.18 58.56 62.81 60.69 C63.79 61.96 64.77 63.23 65.78 64.55 C66.76 65.83 67.74 67.11 68.75 68.44 C69.62 69.54 70.49 70.63 71.38 71.77 C87.75 92.57 87.75 92.57 87.75 98.44 C88.71 97.88 89.67 97.32 90.65 96.75 C115.99 82.23 115.99 82.23 126.75 80.44 C127.08 80.77 127.41 81.1 127.75 81.44 C128.08 81.44 128.41 81.44 128.75 81.44 C128.75 83.09 128.75 84.74 128.75 86.44 C124.11 88.94 119.58 91.1 114.75 93.19 C111.98 94.43 109.21 95.68 106.45 96.93 C105.78 97.23 105.78 97.23 102.4 98.75 C91.19 103.93 80.9 110.44 70.75 117.44 C69.15 118.54 67.56 119.64 65.91 120.77 C57.29 126.75 48.93 132.87 40.75 139.44 C38.77 140.43 36.79 141.42 34.75 142.44 C31.37 145.38 28.04 148.39 24.75 151.44 C23.43 152.57 22.11 153.71 20.75 154.88 C15.88 159.21 11.33 163.8 6.75 168.44 C-10.25 185.44 -10.25 185.44 -15.25 189.44 C-18.25 188.44 -18.25 188.44 -20.27 184.57 C-35.2 145.8 -33.5 94.1 -28.25 53.44 C-27.98 51.35 -27.71 49.27 -27.44 47.12 C-21.99 8.67 -21.99 8.67 -15.25 -2.56 C-8.95 -3.82 -5.51 -3.32 0 0 Z " fill="#A36C53" transform="translate(456.25,158.5625)"/>
</g>
<g id="eye-pupils">
<path id="eye-pupil-right" d="M0 0 C17.33 13.79 25.21 30.32 29 52 C30.2 71.7 25.18 88.01 12.81 103.5 C-0.26 115.87 -14.07 121.61 -31.94 122.31 C-52.11 121.62 -67.02 114.44 -81 100 C-93.04 82.61 -96.22 65.8 -95 45 C-91.22 25.06 -82.79 11.63 -67 -1 C-44.12 -14.37 -22.61 -12.87 0 0 Z " fill="#583629" transform="translate(905,453)"/>
<path id="eye-pupil-left" d="M0 0 C15.25 9.15 23.35 22.98 28.69 39.56 C32.58 60.23 31.01 79.68 20.31 98.19 C10.11 112.54 -1.58 120.39 -18.69 124.19 C-37.53 124.99 -50.44 121.91 -64.88 109.62 C-78.59 93.66 -82.26 74.76 -81.69 54.19 C-79.57 34.52 -71.27 18.37 -56.69 5.19 C-38.75 -6.92 -19.79 -9.78 0 0 Z " fill="#543226" transform="translate(591.6875,435.8125)"/>
</g>
<g id="eye-highlights">
<ellipse id="eye-highlight-right-main" cx="888" cy="490" rx="11" ry="9" fill="#FFF"/>
<circle id="eye-highlight-right-sub" cx="858" cy="518" r="3.5" fill="#FFF" opacity="0.5"/>
<ellipse id="eye-highlight-left-main" cx="580" cy="478" rx="11" ry="9" fill="#FFF"/>
<circle id="eye-highlight-left-sub" cx="550" cy="506" r="3.5" fill="#FFF" opacity="0.5"/>
</g>
<path id="mouth" d="M0 0 C6 1 6 1 9 5 C9.99 7.97 10.98 10.94 12 14 C17.01 20.77 21.79 24.26 30 27 C39.68 27 44.9 24.99 51.94 18.31 C53.28 16.89 54.62 15.47 56 14 C58 13 58 13 64 13 C68 16 68 16 69 21 C64.54 29.93 61.04 34.03 52.12 38.38 C39.46 42.39 28.73 41.12 16.62 35.69 C10 32 10 32 3 27 C-2 28 -2 28 -6.5 31.31 C-15.06 37.05 -21.93 39.19 -32.25 38.56 C-43.25 36.02 -49.04 31.88 -56 23 C-59 16 -59 16 -59 8 C-56 3 -56 3 -55 2 C-53.02 2 -51.04 2 -49 2 C-46 6 -46 6 -44.12 11.94 C-41.76 18.68 -39.44 21.78 -33 25 C-24.68 25.59 -21.79 24.89 -14 21 C-8.31 15.5 -5.74 10.35 -3 3 C-2.01 2.01 -1.02 1.02 0 0 Z " fill="#542819" transform="translate(707,529)"/>
<g id="whiskers-right">
<path id="whisker-right-upper" d="M0 0 C1 1 1 1 1 7 C-12.32 17.65 -40.02 11.89 -56.5 11.62 C-58.99 11.59 -61.47 11.56 -64.04 11.53 C-66.41 11.49 -68.78 11.45 -71.22 11.41 C-73.36 11.38 -75.51 11.35 -77.72 11.32 C-83 11 -83 11 -88 9 C-88.99 7.35 -89.98 5.7 -91 4 C-73.38 -13.62 -21.85 -8.86 0 0 Z " fill="#632F1B" transform="translate(1075,538)"/>
<path id="whisker-right-lower" d="M0 0 C21.84 7.29 21.84 7.29 28.84 14.28 C28.84 15.93 28.84 17.58 28.84 19.28 C24.84 22.28 24.84 22.28 15.84 22.28 C8.98 20.26 2.24 18.13 -4.54 15.84 C-5.49 15.53 -5.49 15.53 -10.33 13.91 C-14.17 12.63 -18 11.35 -21.83 10.06 C-26.48 8.51 -31.15 6.99 -35.82 5.49 C-38.2 4.72 -40.58 3.95 -43.04 3.16 C-45.1 2.49 -47.15 1.83 -49.28 1.15 C-54.16 -0.72 -54.16 -0.72 -59.16 -4.72 C-58.83 -6.37 -58.5 -8.02 -58.16 -9.72 C-42.49 -17.55 -15.31 -4.78 0 0 Z " fill="#642E1A" transform="translate(1047.16015625,588.71875)"/>
</g>
</g>
</svg>